<svg xmlns="http://www.w3.org/2000/svg" width="1080" height="300" viewBox="0 0 1080 300">
  <defs>
    <marker id="arrow-old" viewBox="0 0 10 10" refX="9" refY="5" markerWidth="8" markerHeight="8" orient="auto">
      <path d="M 0 0 L 10 5 L 0 10 z" fill="#b56576"/>
    </marker>
    <marker id="arrow-new" viewBox="0 0 10 10" refX="9" refY="5" markerWidth="8" markerHeight="8" orient="auto">
      <path d="M 0 0 L 10 5 L 0 10 z" fill="#588157"/>
    </marker>
    <style>
      .title { font-family: Arial, sans-serif; font-size: 24px; font-weight: bold; fill: #222; }
      .old { fill: #fde8eb; stroke: #b56576; stroke-width: 2.5; rx: 14; ry: 14; }
      .new { fill: #eef8e8; stroke: #588157; stroke-width: 2.5; rx: 14; ry: 14; }
      .label { font-family: Arial, sans-serif; font-size: 19px; fill: #1f2933; text-anchor: middle; dominant-baseline: middle; }
      .arrow-old { stroke: #b56576; stroke-width: 4; fill: none; marker-end: url(#arrow-old); }
      .arrow-new { stroke: #588157; stroke-width: 4; fill: none; marker-end: url(#arrow-new); }
    </style>
  </defs>

  <text class="title" x="250" y="44">Avant</text>
  <text class="title" x="810" y="44">Apres</text>

  <rect class="old" x="60" y="96" width="170" height="58"/>
  <text class="label" x="145" y="125">Test trop large</text>
  <rect class="old" x="280" y="96" width="210" height="58"/>
  <text class="label" x="385" y="125">Setup dans l'interface</text>
  <rect class="old" x="60" y="196" width="210" height="58"/>
  <text class="label" x="165" y="225">Dependances entre tests</text>
  <rect class="old" x="320" y="196" width="170" height="58"/>
  <text class="label" x="405" y="225">Comptes statiques</text>

  <rect class="new" x="600" y="96" width="170" height="58"/>
  <text class="label" x="685" y="125">Seed explicite</text>
  <rect class="new" x="820" y="96" width="170" height="58"/>
  <text class="label" x="905" y="125">Login par API</text>
  <rect class="new" x="600" y="196" width="190" height="58"/>
  <text class="label" x="695" y="225">Scenario autonome</text>
  <rect class="new" x="840" y="196" width="170" height="58"/>
  <text class="label" x="925" y="225">Signal credible</text>

  <path class="arrow-old" d="M 230 125 L 280 125"/>
  <path class="arrow-old" d="M 385 154 L 385 196"/>
  <path class="arrow-old" d="M 270 225 L 320 225"/>

  <path class="arrow-new" d="M 770 125 L 820 125"/>
  <path class="arrow-new" d="M 905 154 L 905 196"/>
  <path class="arrow-new" d="M 790 225 L 840 225"/>
</svg>
